# xmcd
#
# Track frame offsets:
#	150
#	19063
#	28938
#	46098
#	64430
#	75715
#	96626
#	110840
#
# Disc length: 1715 seconds
#
# Revision: 0
# Processed by: cddbd v1.5.2PL0 Copyright (c) Steve Scherf et al.
# Submitted via: EasyCDDAExtractor 12.0.1.1
#
DISCID=6e06b108
DTITLE=별의별 - 학교가자
DYEAR=1900
DGENRE=Acapella
TTITLE0=학교 가자
TTITLE1=4월의 은행잎
TTITLE2=깊은, 바다
TTITLE3=열두 살의 봄날
TTITLE4=텃밭 가자
TTITLE5=나의 말이 노래가 된다는 것
TTITLE6=원래 다 그런 거래
TTITLE7=행복한 학교
EXTD=
EXTT0=
EXTT1=
EXTT2=
EXTT3=
EXTT4=
EXTT5=
EXTT6=
EXTT7=
PLAYORDER=
